<?xml version="1.0" encoding="iso-8859-1"?>
<!-- Generator: Adobe Illustrator 19.0.0, SVG Export Plug-In . SVG Version: 6.00 Build 0)  -->
<svg version="1.1" id="Layer_1" xmlns="http://www.w3.org/2000/svg" xmlns:xlink="http://www.w3.org/1999/xlink" x="0px" y="0px"
	 viewBox="0 0 511.999 511.999" style="enable-background:new 0 0 511.999 511.999;" xml:space="preserve">
<g>
	<g>
		<path d="M493.768,74.472l-56.241-56.241c-24.308-24.306-63.859-24.308-88.17,0L229.065,138.524
			c-24.308,24.308-24.308,63.862,0,88.17l10.486,10.486l-2.372,2.372l-10.486-10.486c-24.308-24.306-63.859-24.308-88.17,0
			L18.231,349.357c-24.308,24.308-24.308,63.862,0,88.17l56.242,56.24c24.311,24.308,63.859,24.308,88.17,0l120.292-120.292
			c24.308-24.308,24.308-63.862,0-88.17l-10.486-10.486l2.372-2.372l10.486,10.486c24.311,24.308,63.859,24.308,88.17,0
			l120.291-120.292C518.076,138.333,518.076,98.78,493.768,74.472z M247.666,338.208L127.374,458.5
			c-4.86,4.865-12.772,4.863-17.633,0l-56.241-56.241c-4.862-4.86-4.862-12.772,0-17.633l120.292-120.292
			c4.862-4.864,12.774-4.862,17.633,0l10.486,10.486l-45.463,45.463c-9.738,9.74-9.738,25.53,0,35.268
			c9.739,9.739,25.531,9.737,35.268,0l45.463-45.463l10.486,10.486C252.528,325.435,252.528,333.346,247.666,338.208z
			 M458.5,127.373L338.208,247.665c-4.86,4.865-12.772,4.863-17.634,0l-10.486-10.486l45.457-45.457
			c9.738-9.739,9.738-25.53,0-35.268c-9.739-9.739-25.53-9.739-35.268,0L274.82,201.91l-10.486-10.486
			c-4.862-4.86-4.862-12.772,0-17.634L384.626,53.498c4.862-4.864,12.774-4.862,17.633,0l56.241,56.241
			C463.363,114.601,463.363,122.512,458.5,127.373z"/>
	</g>
</g>
<g>
</g>
<g>
</g>
<g>
</g>
<g>
</g>
<g>
</g>
<g>
</g>
<g>
</g>
<g>
</g>
<g>
</g>
<g>
</g>
<g>
</g>
<g>
</g>
<g>
</g>
<g>
</g>
<g>
</g>
</svg>
